<?xml version="1.0" encoding="UTF-8" standalone="no"?>
<!-- Created with Inkscape (http://www.inkscape.org/) -->

<svg
   xmlns:dc="http://purl.org/dc/elements/1.1/"
   xmlns:cc="http://creativecommons.org/ns#"
   xmlns:rdf="http://www.w3.org/1999/02/22-rdf-syntax-ns#"
   xmlns:svg="http://www.w3.org/2000/svg"
   xmlns="http://www.w3.org/2000/svg"
   xmlns:sodipodi="http://sodipodi.sourceforge.net/DTD/sodipodi-0.dtd"
   xmlns:inkscape="http://www.inkscape.org/namespaces/inkscape"
   id="svg2"
   version="1.1"
   inkscape:version="0.47 r22583"
   width="247.87103"
   height="242.20634"
   xml:space="preserve"
   sodipodi:docname="GNU-1.svg"
   inkscape:export-filename="/home/donald/Desktop/Gnu.head.png"
   inkscape:export-xdpi="90"
   inkscape:export-ydpi="90"><metadata
     id="metadata8"><rdf:RDF><cc:Work
         rdf:about=""><dc:format>image/svg+xml</dc:format><dc:type
           rdf:resource="http://purl.org/dc/dcmitype/StillImage" /><dc:title></dc:title></cc:Work></rdf:RDF></metadata><defs
     id="defs6"><inkscape:perspective
       sodipodi:type="inkscape:persp3d"
       inkscape:vp_x="0 : 0.5 : 1"
       inkscape:vp_y="0 : 1000 : 0"
       inkscape:vp_z="1 : 0.5 : 1"
       inkscape:persp3d-origin="0.5 : 0.33333333 : 1"
       id="perspective10" /><clipPath
       clipPathUnits="userSpaceOnUse"
       id="clipPath20"><path
         d="M 0,2127.71 0,0 l 2161.91,0 0,2127.71 -2161.91,0 z"
         id="path22" /></clipPath></defs><sodipodi:namedview
     pagecolor="#ffffff"
     bordercolor="#666666"
     borderopacity="1"
     objecttolerance="10"
     gridtolerance="10"
     guidetolerance="10"
     inkscape:pageopacity="0"
     inkscape:pageshadow="2"
     inkscape:window-width="1280"
     inkscape:window-height="949"
     id="namedview4"
     showgrid="false"
     inkscape:zoom="1.2684253"
     inkscape:cx="156.2342"
     inkscape:cy="308.55495"
     inkscape:window-x="0"
     inkscape:window-y="25"
     inkscape:window-maximized="1"
     inkscape:current-layer="g18" /><g
     id="g12"
     inkscape:groupmode="layer"
     inkscape:label="ink_ext_XXXXXX"
     transform="matrix(1.25,0,0,-1.25,-11.063963,254.1375)"><g
       id="g14"
       transform="scale(0.1,0.1)"
       clip-path="none"><g
         clip-path="url(#clipPath20)"
         id="g18"><path
           id="path24"
           style="fill:#231f20;fill-opacity:1;fill-rule:evenodd;stroke:none"
           d="m 1139.47,1205.91 c 11.01,-30.85 -6.88,-57.29 -36.82,-56.66 18.22,12.96 36.3,26.03 36.82,56.66" /><path
           id="path26"
           style="fill:#231f20;fill-opacity:1;fill-rule:evenodd;stroke:none"
           d="m 1459.58,928.301 c -40.14,-12.199 -64.23,22.961 -107.64,48.16 -44.95,26.099 -122.87,97.719 -195.46,42.489 -11.06,-8.41 -21.27,-18.41 -22.68,-45.329 13.7,28.449 81.39,43.969 90.67,0 -27.78,25.527 -73.03,4.168 -65.17,-39.652 -5.95,-6.231 -12.57,-0.598 -16.99,2.832 -1.87,-16.063 2.59,-25.762 5.66,-36.813 -49.24,20.992 -41.64,111.302 -5.66,135.952 18.84,12.93 43.94,20.52 76.5,19.83 48.27,-1.03 80.55,-24.2 118.97,-48.15 17.1,-10.679 35.54,-21.729 50.98,-33.999 26.1,-20.672 33.76,-43.633 70.82,-45.32" /><path
           id="path28"
           style="fill:#231f20;fill-opacity:1;fill-rule:evenodd;stroke:none"
           d="m 1337.78,820.672 c -16.43,44.93 -33.2,89.547 -84.97,99.137 -2.78,-4.278 5.97,-14.7 0,-25.5 -32.96,-20.879 -71.21,15.16 -51,48.16 83.26,28.383 137.36,-38.02 135.97,-121.797" /><path
           id="path30"
           style="fill:#231f20;fill-opacity:1;fill-rule:evenodd;stroke:none"
           d="m 997.836,908.48 c -25.606,-4.652 -38.887,-21.55 -56.641,-33.992 -0.554,13.742 -0.644,27.071 5.657,33.992 16.824,6.258 30.546,-1.968 50.984,0" /><path
           id="path32"
           style="fill:#231f20;fill-opacity:1;fill-rule:evenodd;stroke:none"
           d="m 1417.09,1177.59 c 22.5,-39.83 47.02,-77.65 68,-118.99 2.63,55.54 -22.29,83.47 -28.34,130.32 -15.44,-1.56 -20.01,-13.97 -39.66,-11.33 z m -42.48,62.31 c -1.9,16.06 6.37,21.98 8.48,34 -38.37,5.28 -19.27,-21.91 -8.48,-34 z m 379.57,-82.16 c -7.76,18.18 -34.4,35.78 -50.97,59.51 -36.4,52.11 -52.14,128.4 -87.8,178.46 -22.27,31.26 -44.63,63.65 -73.66,82.16 -23.42,14.88 -116.1,51.76 -121.83,5.66 -3.83,-31.1 43.39,-44.02 53.83,-87.82 10.67,-44.73 -1.44,-75.28 -22.66,-96.32 22.95,-2.37 42.33,-35.89 28.32,-56.66 -16.79,3.05 -14.18,25.49 -36.85,22.68 14.39,-37.88 -14.1,-55.11 -48.12,-53.83 21.09,-35.33 53.8,12.6 87.8,8.49 -3.58,-9.62 -15.69,-10.72 -17,-22.67 7.72,-14.01 11.69,-31.72 17,-48.15 24.31,-10.62 48.91,-27.95 76.51,-45.33 28.59,-17.99 55.53,-21.87 87.79,-33.99 12.4,-4.64 22.08,-15.52 34,-19.83 42.53,-15.36 129.16,-5.45 133.13,28.33 -57.82,-12.48 -42.35,39.39 -59.49,79.31 z m -286.11,753.53 c 26.23,40.84 87.06,47.05 141.62,59.5 27.14,-17.02 70.23,-21.53 102.01,-5.67 23.48,-20.29 50.8,-34.1 96.34,-25.49 3.25,-17.5 16.22,-25.32 19.82,-42.5 16.77,-2.09 31.95,-5.8 50.97,-5.66 12.48,-30.95 32.26,-54.63 59.5,-70.81 -3.45,-44.06 14.79,-66.42 34.01,-87.83 -21.97,-37.1 -2.23,-68.69 19.81,-90.64 -9.52,-14.08 -21.32,-25.9 -28.31,-42.49 6.62,-13.2 24.85,-14.8 28.31,-31.17 -14.65,-9.88 -26.79,-22.3 -39.64,-33.98 14.01,-14.31 32.47,-24.19 39.64,-45.34 -17.73,-1.15 -28.27,-9.51 -45.32,-11.32 3.77,-22.67 23.45,-29.43 28.34,-50.99 -14.96,-1.14 -31.48,-0.63 -39.67,-8.51 11.88,-12.66 18.32,-30.77 25.48,-48.14 -14.15,0 -28.33,0 -42.47,0 1.41,-14.71 20.93,-26.22 16.99,-36.84 -16.36,0.64 -31.3,2.71 -45.34,5.67 1.41,-20.31 6.43,-37.03 11.33,-53.83 -15.17,3.25 -30.88,34.54 -39.65,25.49 -6.69,-17.86 -6.69,-42.42 -14.17,-59.49 -7.76,15.86 -15.77,31.44 -25.51,45.32 -5.08,-18.49 -8.87,-38.31 -14.12,-56.65 -12.39,6.98 -24.48,42.91 -34,34 0.64,-18.22 4.55,-33.22 2.82,-53.83 -14.52,15.72 -23.09,37.36 -36.83,53.83 5.8,-34.82 11.42,-69.78 25.49,-96.31 90.13,10.25 150.49,53.62 195.46,113.3 45.07,59.79 83.21,133 90.68,220.97 24.64,291.94 -142.61,481.49 -393.79,492.9 -120.72,5.49 -156.25,-44.04 -240.78,-82.15 -16.28,-7.35 -29.19,-6.29 -45.31,-8.5 53.46,-79.17 192.21,-8.81 283.25,-22.66 120.85,-18.38 207.2,-134.11 215.31,-254.96 6.83,-101.76 -29.7,-216.05 -121.8,-203.95 -21.75,2.85 -50.31,24.94 -68,42.48 -91.46,90.75 -153.87,272.93 -314.43,294.61 -83.69,11.31 -126.22,-17.66 -172.8,-59.48 58.25,-19.24 118.22,-45.9 141.63,-93.48 5.54,-11.21 11.82,-30.15 8.49,-48.16 -6.14,-33.32 -82.21,-63.22 -79.31,-93.49 1.27,-13.07 27.2,-18.89 31.17,-33.98 11.51,-43.95 -48.01,-62.99 -70.82,-34.01 19.41,0.43 30.91,4.26 31.15,19.85 0.5,30.77 -88.84,33.74 -121.82,70.81 -13.64,15.36 -14.28,26.28 -19.81,50.99 -58.88,-1.75 -86.96,-41.45 -147.306,-39.65 -14.207,0.42 -28.243,7.26 -42.508,8.5 -49.356,4.25 -96.524,-21 -141.621,-28.34 -21.516,-3.48 -43.555,-0.42 -62.317,-5.66 -45.437,-12.65 -92.773,-45.2 -121.836,-70.83 -36.043,-31.82 -62.441,-82.99 -84.968,-133.15 -28.555,-63.61 -60.235,-138.44 -59.504,-226.61 -28.086,-22.91 -37.86,-64.1 -48.145,-104.811 -25.801,-17.66 -69.414,-32.539 -59.48,-76.469 20.847,14.762 50.593,28.828 82.148,17 27.07,10.531 39.004,34.621 65.137,45.309 27.851,11.39 61.805,13.043 90.644,22.66 139.786,46.591 215.664,167.261 243.653,328.601 -3.145,-104.53 -35.157,-218.16 22.656,-286.109 -28.867,25.909 -43.254,66.289 -59.492,104.799 -13.731,-22.45 -25.188,-41.61 -45.344,-65.14 -14.578,-17.02 -51.043,-37.82 -56.648,-56.651 -14.778,-49.66 22.449,-91.18 5.671,-150.16 4.864,-12.117 21.458,-12.5 28.332,-22.617 7.586,-23.602 -3.75,-66.09 11.317,-82.18 39.121,2.289 54.394,-19.25 56.672,-53.82 21.914,-5.661 47.5,-0.723 50.996,-25.493 3.262,-23.238 -27.637,-36.519 -22.656,-62.32 6.601,-34.289 47.754,-22.078 84.98,-39.648 15.957,-7.563 37.117,-36.313 39.637,-53.852 4.523,-31.418 -22.266,-51.437 -19.832,-73.641 2,-18.199 34.121,-41.046 42.508,-36.828 -28.594,67.289 44.916,81.45 65.156,107.629 3.38,-22.828 -8.3,-43.777 0,-62.308 14.77,-14.11 37.44,-3.942 53.83,2.828 -50.25,-56.258 14.22,-115.457 62.3,-133.117 -5.8,-52.102 13.37,-94.293 45.34,-99.133 -74.47,105.582 124.35,91.801 110.47,201.101 15.2,-29.05 -2.69,-72.289 -5.66,-90.64 15.68,11.691 29.9,24.851 39.66,42.48 6.48,-2.949 -1.34,-20.238 5.65,-22.648 14.32,14 30.64,26.027 42.51,42.468 5.83,54.071 -39.49,67.09 -25.5,113.309 -40.57,22.359 -65.81,-17.23 -96.32,-14.16 -24.75,2.531 -37.89,32.941 -73.64,22.66 79.09,40.949 203.51,41.52 311.59,45.32 12.32,24.129 14.87,66.512 5.68,96.34 -83.92,20.789 -148.24,-8.23 -209.63,-14.168 -106.95,-10.359 -148.67,30.617 -186.98,87.809 -32.83,49.051 -52.36,132.769 -110.47,152.961 59.33,6.469 60.58,-45.172 85,-73.653 10.46,26.364 12.39,61.274 39.65,70.852 -18.38,-20.34 -25.46,-51.98 -31.16,-85.012 26.44,-38.058 34.17,-69.457 67.98,-99.136 71.68,-62.981 185.78,-9.43 266.3,-2.832 55.06,4.519 153.12,-18.258 152.97,33.992 -0.1,21.66 -22.86,23.976 -34,33.988 -12.93,11.629 -10.3,24.641 -25.51,28.328 -20.67,-3.898 -50.84,-13.297 -73.64,-5.668 76.89,17.59 227.08,97 175.62,215.301 -17.67,40.679 -53.65,7.391 -87.81,11.32 -58.12,6.731 -78.83,89.079 -104.82,135.969 -29.46,53.19 -81.94,103.15 -99.15,144.48 -23.4,56.34 -6.36,183.91 53.84,172.81 41.13,-7.61 -7.75,-47.38 -11.33,-67.98 24.91,4.06 50.82,-5.79 48.14,-19.84 -6.66,10.96 -32.53,15.65 -48.14,8.5 -6.25,-26.82 -32.72,-33.4 -28.34,-70.83 30.49,9.33 55.07,18.99 93.49,14.17 10.38,16.96 19.82,22.2 22.65,36.83 12.92,66.52 -38.33,81.16 -53.81,116.14 -9.28,20.97 -6.57,44.88 -14.16,65.17 -20.35,4.19 -46.52,2.59 -70.84,2.81 72.56,68.27 -20.63,144.11 -70.79,175.65 35.25,12.16 71.98,26.7 113.3,16.98 167.93,-39.46 214.93,-255.24 365.45,-308.76 11.99,-12.54 21.99,-27.1 36.81,-36.82 13.42,23.39 31.09,37.56 70.81,28.32 1.89,16.99 7.41,30.36 8.49,48.16 12.71,4.28 27.29,6.71 39.67,11.33 -0.13,23.46 -2.18,45.02 -5.67,65.14 6.95,11.01 23.69,12.21 28.33,25.5 -5.21,14.64 -16,23.66 -19.84,39.66 5.96,19.11 20.46,28.42 19.84,45.32 -0.67,17.73 -26.11,31.1 -28.33,53.84 -1.7,17.47 13.46,24.71 11.32,48.16 -25.21,14.43 -40.86,38.45 -36.8,82.15 -17.92,3.81 -30.27,13.18 -48.15,16.98 -5.75,16.92 -12.16,33.19 -19.87,48.17 -16.97,0 -33.99,0 -50.96,0 -14.91,9.5 -11.04,28.45 -31.18,33.98 -27.97,7.69 -75.2,-14.29 -90.62,17 -14.46,-4.44 -22.06,-15.74 -36.85,-19.82 -11.81,6.13 -23.52,12.35 -33.99,19.82 -27.66,-5.41 -55.36,-25.82 -79.33,-25.5 0.96,0 1.89,0 2.83,0 z m -218.09,-436.25 c -3.29,47.38 95.49,57.34 65.13,127.48 -13.45,31.07 -104.25,89.54 -130.29,82.15 0.87,0.26 1.91,-0.19 2.81,0 26.76,-20.83 52.66,-32.81 56.66,-70.82 1.4,-13.35 -6.4,-28.94 -2.82,-42.49 4.42,-16.79 30.46,-18.9 22.65,-36.81 -10.36,18.38 -26.44,14.03 -33.99,31.14 -6.85,15.6 1.61,33.39 -2.83,51 -7.97,31.58 -50.09,58.83 -87.83,45.32 -65.87,82.54 -156.908,120.34 -266.263,107.64 -86.973,-10.08 -138.875,-74.69 -195.469,-138.79 -54.519,-61.74 -105.75,-134.38 -158.621,-175.64 -13.097,-10.21 -34.375,-24.33 -48.183,-28.32 -88.77,-25.72 -151.243,58.95 -158.625,127.46 -13.797,128.18 38.898,212.52 96.308,266.3 49.66,46.49 118.613,76.63 195.469,82.14 91.387,6.54 249.602,-60.52 280.441,33.99 -60.402,-26.32 -116.113,29.44 -152.98,48.17 -52.527,26.68 -148.945,34.01 -232.293,28.32 -200.801,-13.69 -380.137,-171.06 -393.742,-373.92 -18.1722,-271 111.066,-456.1 337.09,-487.27 2.05,33.88 19.503,67.39 17.023,96.34 -11.27,-15.23 -24.766,-43.21 -36.855,-48.16 0,17.95 0,35.87 0,53.82 -12.278,-1.92 -24.004,-28.83 -36.817,-39.66 -3.926,20.63 -11.476,37.62 -14.16,59.49 -17.031,-9.43 -18.762,-34.13 -33.996,-45.33 -1.356,24.15 -10.809,40.18 -11.317,65.16 -14.367,2.5 -33.136,-28.79 -45.324,-28.32 2.989,18.7 9.532,33.89 11.328,53.81 -19.824,-0.96 -36.347,-5.21 -56.668,-5.67 8.321,13.42 18.133,25.32 25.489,39.67 -16.086,1.85 -39.59,-3.73 -50.969,2.84 9.805,16.6 20.215,32.64 28.312,50.97 -13.566,4.38 -32.765,3.12 -45.332,8.52 10.321,16.45 33.016,34.52 33.985,50.99 -20.852,1.76 -35.403,9.9 -53.821,14.15 11.465,19.74 35.938,26.4 45.364,48.16 -15.891,11.53 -30.852,23.93 -45.364,36.82 9.786,14.23 36.204,16.8 36.856,31.17 0.449,10.19 -37.156,32.64 -34.024,45.33 13.223,14.18 27.59,27.19 36.856,45.31 -7.07,14.67 -9.031,34.43 -14.18,51.01 28.223,16.14 38.848,49.9 39.66,93.47 36.825,8.5 48.711,41.94 67.997,67.99 18.136,1.67 34.628,5.03 53.82,5.67 10.019,14.53 17.723,31.37 28.32,45.32 48.906,-20.55 74.102,22.38 110.469,25.49 15.664,1.34 35.125,-11.89 53.836,-11.33 22.734,0.7 44.367,17 65.168,17 13.066,0.01 30.515,-8.19 48.144,-11.33 19.207,-3.43 41.278,-1 53.836,-5.67 22.219,-8.26 38.203,-34.07 50.957,-45.33 -27.136,9.67 -53.359,20.27 -82.136,28.33 -15.696,-6.03 -26.504,-16.91 -45.313,-19.82 -13.254,5.61 -21.797,15.98 -36.848,19.82 -18.652,-21.44 -70.437,-23.4 -107.644,-16.99 -16.348,-27.09 -41.465,-45.39 -93.469,-36.82 -5.781,-18.77 -13.172,-35.93 -22.664,-51 -18.594,-4.06 -32.961,-12.35 -50.988,-17 -2.625,-18.15 -3.504,-38.03 -5.653,-56.66 -32.628,-13.18 -44.492,-44.08 -25.507,-82.15 -10.45,-19.76 -23.547,-36.88 -33.996,-56.64 9.054,-15.49 19.503,-29.6 25.507,-48.17 -7.695,-14.01 -17.625,-25.81 -22.664,-42.48 7.782,-11.11 26.641,-11.12 31.153,-25.51 -1.145,-23.41 -6.828,-42.27 -5.657,-67.99 17.325,-1.54 31.672,-6.08 45.313,-11.32 1.828,-18.01 8.273,-31.42 8.508,-50.98 16.875,1.99 35.078,2.67 50.996,5.66 12.422,-11.18 21.933,-25.29 33.984,-36.83 42.274,49.22 106.66,72.74 155.801,116.14 93.934,82.94 172.078,239.27 328.602,252.12 99.19,8.14 143.38,-39.35 201.11,-90.64 1.89,4.07 8.12,17.95 11.34,11.33 -5.71,-51.4 -15.81,-85.99 5.67,-124.64 28.18,-50.69 122.55,-36.86 130.31,-84.99 2.89,-17.84 -12.57,-22.11 -5.64,-28.34 55.85,24.6 -9.44,43.05 -11.33,70.82 z M 513.434,2033.1 c 29.285,0 58.535,0 87.82,0 35.312,-5.06 86.125,-7.86 116.133,-19.84 63.965,-25.56 107.597,-95.74 186.984,-56.65 5.301,-85.93 -103.215,-98.41 -184.133,-87.82 -35.34,4.61 -67.273,17.07 -99.16,17 -146.746,-0.34 -264.207,-101.18 -288.945,-232.3 -17.031,-90.18 17.414,-203.98 96.32,-212.45 79.188,-8.49 152.598,107.79 189.805,150.13 83.476,95.08 156.707,217.86 351.258,195.47 78.814,-9.08 111.934,-58.64 175.624,-93.48 62.33,50.36 115.69,111.08 235.13,87.81 118.58,-23.11 179.38,-126.98 243.61,-215.3 32.6,-44.79 87.82,-122.72 144.49,-118.98 42.03,2.79 67.52,48.5 76.46,73.67 50.05,140.62 -30.14,276.87 -113.27,325.77 -26.68,15.68 -74.71,32.61 -104.84,34 -76.3,3.49 -158.65,-40.6 -229.43,-8.51 -26.04,11.8 -38.87,29.36 -45.35,70.83 63.75,-31.79 113.1,34.62 164.31,56.64 40.28,17.33 114.04,24.52 178.46,19.84 210.35,-15.32 364.58,-184.86 376.77,-413.59 0,-28.34 0,-56.66 0,-84.98 -29.9,-191.07 -118.17,-323.75 -300.28,-362.62 3.57,-20.98 7.13,-41.95 16.97,-56.65 61.52,11.24 50.37,-49.81 14.18,-65.15 -28.45,-12.05 -90.95,-12.21 -127.47,-2.83 -14.09,3.61 -27.27,17.11 -42.5,22.66 -14.14,5.15 -29.42,3.68 -42.48,8.49 -43.54,16.1 -72.72,58.94 -101.98,56.65 21.86,-28.13 5.09,-94.97 39.65,-110.46 25.91,-0.39 45.78,5.18 65.16,11.34 52.09,-6.91 73.44,-107.431 48.16,-161.489 -19.68,-42.11 -73.81,-62.981 -93.48,-87.813 12.44,-27.668 48.17,-30.41 53.82,-59.488 8.92,-45.922 -35.52,-63 -73.66,-76.512 7.1,-33.258 11.58,-101.687 -19.82,-118.957 -24.25,-13.32 -70.41,0.578 -96.32,-14.172 -10.88,-6.168 -27.92,-29.757 -28.34,-45.308 -0.86,-32.403 26.84,-42.84 25.51,-76.481 -0.78,-19.281 -13.03,-41.101 -19.84,-48.148 -13.23,-13.711 -59.43,-26.281 -62.32,-48.152 -3.83,-29.141 59.39,-86.661 102,-65.18 0.77,-15.61 -27.61,-30.039 -17.01,-36.809 20.97,8.328 46.16,27.469 59.47,33.981 -20.94,-39.473 -55.31,-65.512 -90.63,-90.641 19.64,-5.941 46.99,1.149 62.29,-2.84 -59.95,-35.0427 -140.94,2.75 -175.61,25.489 5.51,-30.372 35.11,-36.668 56.65,-50.9692 -53.94,3.6402 -101.33,13.8792 -133.12,39.6402 2.5,-25.793 25.79,-30.863 42.48,-42.4918 -10.39,0 -20.8,0 -31.15,0 -44.81,25.2698 -102.97,51.6918 -99.16,116.1798 -38.12,-8.258 -33.45,-53.981 -11.34,-76.52 -60.17,22.93 -38.99,99.18 -2.83,133.141 -39.44,19.102 -47.21,84.961 -87.81,93.5 11.21,-24.051 31.27,-43.801 28.32,-70.84 -3.71,-34.629 -37.998,-35.262 -65.138,-50.988 -9.442,-25.012 13.351,-38.481 19.816,-56.641 -22.949,22.43 -49.191,29.699 -42.473,65.141 4.836,25.578 54.082,27.898 53.828,53.808 -0.195,18.391 -46.003,44.598 -62.351,56.68 -24.121,17.871 -55.371,37.102 -53.82,65.149 1.476,25.863 37.265,33.261 33.996,62.312 -9.278,12.449 -33.75,9.711 -50.996,14.199 -6.446,5.782 0.808,25.34 -5.657,31.149 -38.816,-1.739 -76.14,30.679 -65.144,76.48 3.719,15.391 22.558,18.051 19.824,33.992 -7.695,10.25 -35.293,0.598 -42.5,11.34 -9.699,9.149 -3.359,34.379 -14.16,42.489 -12.383,4.609 -31.731,2.25 -42.492,8.492 -9.325,25.609 -8.055,61.797 -14.129,90.636 -2.598,12.563 -25.547,4.731 -25.547,19.821 -3.899,50.902 -4.406,105.14 -16.973,147.332 C 620.512,943.969 588.578,923.031 538.91,919.809 495.395,617.719 636.82,441 774.066,310.77 c -165,121.371 -297.429,289.57 -269.109,594.878 -30.352,0.582 -34.816,-39.328 -62.355,-45.347 -17.559,-3.84 -33.387,6.84 -50.985,5.699 -24.816,-1.691 -40.84,-26.32 -65.137,-14.16 -10.488,34.64 -5.332,62.191 16.993,84.961 15.32,15.609 39.746,19.859 48.144,36.82 7.363,14.809 3.387,34.169 8.516,48.169 11.621,31.78 57.469,59.21 33.984,107.62 -217.109,38.82 -323.887,187.91 -345.6053,422.1 0,29.28 0,58.55 0,87.83 35.0583,237.83 181.2773,364.48 424.9223,393.76" /><path
           id="path34"
           style="fill:#231f20;fill-opacity:1;fill-rule:evenodd;stroke:none"
           d="m 958.18,1486.36 c 9.285,-74.43 -28.235,-126.65 -87.805,-141.63 21.203,9.93 10.402,51.9 16.992,76.47 -34.414,0.4 -40.847,-27.12 -45.32,-56.65 -33.672,-13.65 -66.797,-57.7 -93.477,-59.49 36.434,10.78 34.141,60.29 67.95,73.65 2.82,29.3 22.605,41.65 36.824,59.5 23.019,2.26 45.461,-3.96 53.84,16.99 29.492,-2.09 39.421,15.34 50.996,31.16" /><path
           id="path36"
           style="fill:#231f20;fill-opacity:1;fill-rule:evenodd;stroke:none"
           d="m 1145.14,1407.03 c -32.01,3.88 -56.81,14.95 -59.47,48.17 14.92,-9.24 40.49,-21.7 56.64,-5.66 17.88,-69.94 60.2,-115.45 76.5,-186.97 -36.8,24.59 -45.06,102.24 -73.67,144.46" /><path
           id="path38"
           style="fill:#231f20;fill-opacity:1;fill-rule:evenodd;stroke:none"
           d="m 1082.85,1305.06 c 1.76,23.51 -3,40.46 -11.35,53.83 -46.51,10.15 -88.516,-7.45 -119.004,-22.66 18.438,23.14 65.594,42.03 119.004,39.65 31.82,-21.06 28.64,-77.11 48.13,-110.47 -8.8,17.26 -24.82,10.97 -48.13,11.33 -0.16,-12.14 13.08,-18.96 11.35,-36.84 -4.71,-47.5 -97.698,-39.81 -79.33,19.83 -23.614,2.84 -35.008,-6.58 -48.172,-14.16 9.988,-59.8 150.252,-75.53 164.282,-17 -18.63,-90.02 -208.286,-43.61 -184.107,45.33 32.305,32.31 98.957,19.87 147.327,31.16" /><path
           id="path40"
           style="fill:#231f20;fill-opacity:1;fill-rule:nonzero;stroke:none"
           d="m 570.188,875.73 5.023,-0.351 -1.231,-18.149 -15.898,1.098 c -2.027,2.942 -3.504,5.934 -4.414,8.973 -0.914,3.039 -1.266,6.121 -1.047,9.238 0.293,4.211 1.457,7.973 3.5,11.281 2.039,3.309 4.824,5.731 8.356,7.25 3.535,1.508 7.402,2.129 11.613,1.828 4.168,-0.289 8.004,-1.429 11.492,-3.418 3.496,-2 6.008,-4.691 7.531,-8.089 1.528,-3.391 2.145,-7.231 1.844,-11.493 -0.215,-3.097 -0.91,-5.867 -2.09,-8.296 -1.176,-2.43 -2.711,-4.301 -4.597,-5.602 -1.895,-1.289 -4.309,-2.211 -7.243,-2.75 l -1.05,5.211 c 2.226,0.488 4,1.168 5.312,2.039 1.316,0.871 2.406,2.16 3.281,3.879 0.871,1.723 1.383,3.66 1.535,5.82 0.18,2.602 -0.058,4.871 -0.718,6.813 -0.657,1.937 -1.586,3.539 -2.793,4.789 -1.207,1.25 -2.559,2.25 -4.051,3 -2.574,1.269 -5.41,2.019 -8.508,2.238 -3.816,0.262 -7.058,-0.18 -9.723,-1.309 -2.664,-1.14 -4.707,-2.921 -6.124,-5.351 -1.422,-2.43 -2.235,-5.051 -2.43,-7.879 -0.168,-2.449 0.133,-4.879 0.918,-7.289 0.781,-2.402 1.668,-4.242 2.656,-5.52 l 7.98,-0.562 0.876,12.601" /><path
           id="path42"
           style="fill:#231f20;fill-opacity:1;fill-rule:nonzero;stroke:none"
           d="m 551.816,848.77 42.95,-0.2 -0.032,-5.832 -33.82,-22.398 33.719,-0.149 -0.024,-5.453 -42.949,0.192 0.028,5.832 33.855,22.41 -33.75,0.148 0.023,5.45" /><path
           id="path44"
           style="fill:#231f20;fill-opacity:1;fill-rule:nonzero;stroke:none"
           d="m 596.516,778.109 0.339,-5.668 -24.769,-1.492 c -4.313,-0.258 -7.762,0.031 -10.352,0.852 -2.593,0.82 -4.761,2.461 -6.504,4.91 -1.738,2.449 -2.734,5.738 -2.984,9.867 -0.238,4.024 0.254,7.352 1.484,9.981 1.235,2.64 3.129,4.582 5.684,5.832 2.559,1.25 6.109,2.007 10.648,2.281 l 24.774,1.488 0.34,-5.68 -24.742,-1.48 c -3.723,-0.219 -6.45,-0.73 -8.168,-1.531 -1.723,-0.797 -3.012,-2.071 -3.868,-3.809 -0.855,-1.75 -1.21,-3.84 -1.062,-6.269 0.246,-4.18 1.375,-7.09 3.371,-8.75 1.996,-1.661 5.684,-2.34 11.066,-2.012 l 24.743,1.48" /><path
           id="path46"
           style="fill:#231f20;fill-opacity:1;fill-rule:nonzero;stroke:none"
           d="m 555.344,757.512 5.968,0.636 0.645,-5.968 -5.973,-0.641 -0.64,5.973" /><path
           id="path48"
           style="fill:#231f20;fill-opacity:1;fill-rule:nonzero;stroke:none"
           d="m 578.363,739.059 c -5.109,-0.821 -8.922,-2.829 -11.425,-6.047 -2.504,-3.223 -3.422,-6.903 -2.762,-11.051 0.668,-4.223 2.711,-7.461 6.113,-9.711 3.402,-2.262 7.836,-2.961 13.297,-2.09 3.449,0.551 6.371,1.61 8.762,3.192 2.386,1.578 4.113,3.597 5.172,6.07 1.058,2.469 1.367,5.109 0.921,7.91 -0.629,3.969 -2.539,7.168 -5.722,9.598 -3.188,2.441 -7.973,3.14 -14.356,2.129 z m -0.836,5.793 c 7.043,1.128 12.856,0.109 17.438,-3.032 4.586,-3.148 7.355,-7.711 8.305,-13.691 0.621,-3.918 0.25,-7.598 -1.122,-11.039 -1.371,-3.442 -3.597,-6.262 -6.679,-8.43 -3.086,-2.191 -6.746,-3.621 -10.992,-4.289 -4.301,-0.68 -8.289,-0.43 -11.961,0.77 -3.668,1.187 -6.633,3.238 -8.883,6.148 -2.25,2.902 -3.672,6.199 -4.258,9.883 -0.637,4 -0.238,7.719 1.191,11.168 1.426,3.449 3.68,6.25 6.762,8.398 3.078,2.153 6.481,3.524 10.199,4.114" /><path
           id="path50"
           style="fill:#231f20;fill-opacity:1;fill-rule:nonzero;stroke:none"
           d="m 589.855,692.051 2.786,-11.891 c 0.589,-2.531 1.32,-4.449 2.171,-5.75 0.864,-1.301 1.95,-2.191 3.278,-2.672 1.324,-0.468 2.664,-0.547 4.012,-0.226 1.976,0.457 3.433,1.558 4.375,3.289 0.933,1.738 1.039,4.16 0.316,7.258 l -3.102,13.23 -13.836,-3.238 z m -24.66,0.058 41.817,9.801 4.343,-18.539 c 0.875,-3.73 1.165,-6.652 0.868,-8.769 -0.297,-2.114 -1.262,-3.973 -2.891,-5.582 -1.629,-1.598 -3.594,-2.68 -5.894,-3.211 -2.969,-0.7 -5.696,-0.329 -8.18,1.121 -2.485,1.441 -4.473,4.109 -5.961,7.992 -0.359,-1.633 -0.797,-2.902 -1.305,-3.832 -1.101,-1.961 -2.597,-3.93 -4.48,-5.891 l -9.68,-9.937 -1.629,6.957 7.402,7.57 c 2.129,2.211 3.739,3.981 4.825,5.34 1.09,1.359 1.8,2.519 2.136,3.473 0.336,0.949 0.512,1.878 0.524,2.777 -0.016,0.66 -0.192,1.711 -0.524,3.133 l -1.504,6.418 -18.57,-4.352 -1.297,5.531" /><path
           id="path52"
           style="fill:#231f20;fill-opacity:1;fill-rule:nonzero;stroke:none"
           d="m 597.832,634.449 4.805,1.512 5.476,-17.352 -15.203,-4.769 c -2.961,2 -5.422,4.25 -7.383,6.738 -1.965,2.5 -3.41,5.242 -4.343,8.211 -1.266,4.031 -1.551,7.961 -0.864,11.789 0.696,3.832 2.407,7.102 5.141,9.801 2.73,2.699 6.117,4.68 10.141,5.941 3.988,1.25 7.968,1.59 11.953,1.012 3.976,-0.594 7.3,-2.184 9.961,-4.781 2.656,-2.61 4.629,-5.949 5.906,-10.031 0.933,-2.961 1.297,-5.79 1.086,-8.489 -0.207,-2.691 -0.953,-4.992 -2.242,-6.89 -1.289,-1.903 -3.2,-3.629 -5.735,-5.211 l -2.879,4.468 c 1.895,1.274 3.297,2.551 4.2,3.84 0.91,1.293 1.457,2.891 1.64,4.813 0.18,1.918 -0.051,3.91 -0.699,5.988 -0.773,2.481 -1.828,4.5 -3.148,6.07 -1.325,1.571 -2.774,2.711 -4.352,3.442 -1.574,0.719 -3.203,1.16 -4.867,1.308 -2.864,0.25 -5.774,-0.089 -8.735,-1.019 -3.652,-1.149 -6.507,-2.738 -8.574,-4.77 -2.066,-2.031 -3.316,-4.429 -3.758,-7.211 -0.437,-2.777 -0.23,-5.519 0.618,-8.218 0.738,-2.352 1.91,-4.5 3.515,-6.45 1.606,-1.953 3.102,-3.351 4.488,-4.179 l 7.629,2.398 -3.777,12.039" /><path
           id="path54"
           style="fill:#231f20;fill-opacity:1;fill-rule:nonzero;stroke:none"
           d="m 616.598,594.27 c 1.898,0.781 3.789,0.781 5.683,-0.008 1.891,-0.793 3.227,-2.133 4.004,-4.012 0.781,-1.891 0.785,-3.789 0.008,-5.68 -0.781,-1.898 -2.117,-3.242 -4.012,-4.031 -1.894,-0.777 -3.797,-0.777 -5.695,0.012 -1.898,0.789 -3.242,2.129 -4.027,4.019 -0.778,1.879 -0.774,3.77 0.015,5.668 0.789,1.903 2.129,3.242 4.024,4.032" /><path
           id="path56"
           style="fill:#231f20;fill-opacity:1;fill-rule:nonzero;stroke:none"
           d="m 614.773,546.129 38.223,19.59 13.215,-25.789 -4.512,-2.309 -10.621,20.719 -11.836,-6.059 9.192,-17.941 -4.508,-2.309 -9.196,17.938 -17.363,-8.899 -2.594,5.059" /><path
           id="path58"
           style="fill:#231f20;fill-opacity:1;fill-rule:nonzero;stroke:none"
           d="m 643.246,521.148 3.149,-4.359 c -1.715,-1.32 -2.926,-2.73 -3.629,-4.238 -0.711,-1.5 -0.93,-3.301 -0.657,-5.422 0.27,-2.109 1.032,-4.207 2.282,-6.309 1.113,-1.859 2.367,-3.34 3.773,-4.441 1.402,-1.09 2.793,-1.699 4.176,-1.82 1.375,-0.118 2.637,0.16 3.777,0.839 1.156,0.692 1.969,1.633 2.434,2.813 0.465,1.187 0.527,2.73 0.195,4.617 -0.207,1.223 -0.914,3.774 -2.121,7.641 -1.203,3.883 -1.855,6.711 -1.941,8.492 -0.133,2.32 0.226,4.309 1.082,5.988 0.851,1.68 2.125,3.031 3.82,4.039 1.859,1.114 3.914,1.621 6.168,1.532 2.242,-0.098 4.398,-0.911 6.441,-2.43 2.051,-1.531 3.821,-3.539 5.301,-6.02 1.629,-2.73 2.625,-5.41 2.992,-8.019 0.367,-2.61 0.032,-5 -1.011,-7.141 -1.043,-2.14 -2.622,-3.898 -4.731,-5.281 l -3.144,4.473 c 2.175,1.636 3.433,3.539 3.757,5.707 0.325,2.16 -0.355,4.652 -2.047,7.492 -1.757,2.949 -3.585,4.777 -5.468,5.488 -1.891,0.699 -3.602,0.602 -5.125,-0.309 -1.328,-0.789 -2.129,-1.921 -2.414,-3.39 -0.293,-1.449 0.293,-4.418 1.761,-8.93 1.469,-4.5 2.305,-7.691 2.512,-9.558 0.293,-2.743 -0.012,-5.082 -0.922,-7 -0.906,-1.93 -2.347,-3.493 -4.332,-4.672 -1.961,-1.168 -4.144,-1.711 -6.551,-1.621 -2.406,0.089 -4.722,0.902 -6.937,2.429 -2.223,1.532 -4.117,3.614 -5.691,6.242 -1.993,3.34 -3.172,6.43 -3.543,9.258 -0.375,2.84 0.035,5.481 1.218,7.934 1.196,2.449 3,4.437 5.426,5.976" /><path
           id="path60"
           style="fill:#231f20;fill-opacity:1;fill-rule:nonzero;stroke:none"
           d="m 654.375,476.398 35.422,24.293 16.387,-23.89 -4.18,-2.871 -13.176,19.199 -10.969,-7.508 11.403,-16.633 -4.18,-2.867 -11.398,16.617 -16.09,-11.027 -3.219,4.687" /><path
           id="path62"
           style="fill:#231f20;fill-opacity:1;fill-rule:nonzero;stroke:none"
           d="m 673.062,449.641 4.833,3.57 3.566,-4.84 -4.836,-3.562 -3.563,4.832" /><path
           id="path64"
           style="fill:#231f20;fill-opacity:1;fill-rule:nonzero;stroke:none"
           d="m 702.367,445.16 c -4.004,-3.281 -6.273,-6.941 -6.816,-10.98 -0.539,-4.032 0.519,-7.68 3.179,-10.93 2.711,-3.309 6.106,-5.078 10.18,-5.32 4.078,-0.219 8.258,1.41 12.531,4.91 2.704,2.211 4.692,4.609 5.961,7.172 1.27,2.566 1.739,5.187 1.407,7.859 -0.329,2.668 -1.391,5.098 -3.184,7.289 -2.551,3.11 -5.816,4.91 -9.789,5.41 -3.977,0.489 -8.465,-1.308 -13.469,-5.41 z m -3.64,4.59 c 5.515,4.52 11.043,6.57 16.589,6.172 5.547,-0.41 10.243,-2.961 14.075,-7.641 2.511,-3.07 4.043,-6.429 4.593,-10.101 0.551,-3.66 0.043,-7.211 -1.519,-10.649 -1.567,-3.441 -4.008,-6.519 -7.332,-9.242 -3.371,-2.758 -6.945,-4.551 -10.715,-5.367 -3.773,-0.82 -7.367,-0.543 -10.773,0.828 -3.411,1.379 -6.297,3.512 -8.661,6.398 -2.562,3.133 -4.093,6.543 -4.597,10.243 -0.508,3.699 0.027,7.257 1.601,10.66 1.574,3.418 3.824,6.308 6.739,8.699" /><path
           id="path66"
           style="fill:#231f20;fill-opacity:1;fill-rule:nonzero;stroke:none"
           d="m 736.176,410.102 8.359,-8.911 c 1.777,-1.89 3.363,-3.191 4.758,-3.89 1.395,-0.699 2.781,-0.93 4.164,-0.672 1.387,0.25 2.582,0.851 3.594,1.801 1.48,1.39 2.191,3.07 2.137,5.039 -0.051,1.972 -1.168,4.121 -3.348,6.441 l -9.301,9.91 -10.363,-9.718 z m -21.387,-12.274 31.32,29.391 13.032,-13.891 c 2.617,-2.789 4.332,-5.18 5.132,-7.156 0.793,-1.981 0.895,-4.082 0.282,-6.281 -0.606,-2.2 -1.774,-4.11 -3.496,-5.731 -2.219,-2.082 -4.77,-3.121 -7.641,-3.121 -2.875,0.012 -5.93,1.32 -9.16,3.941 0.5,-1.589 0.762,-2.91 0.785,-3.96 0.023,-2.258 -0.285,-4.7 -0.941,-7.348 l -3.411,-13.453 -4.89,5.211 2.629,10.261 c 0.742,2.981 1.242,5.329 1.508,7.039 0.257,1.719 0.3,3.079 0.117,4.079 -0.184,0.992 -0.5,1.882 -0.946,2.671 -0.339,0.559 -1.007,1.372 -2.007,2.442 l -4.512,4.808 -13.906,-13.05 -3.895,4.148" /><path
           id="path68"
           style="fill:#231f20;fill-opacity:1;fill-rule:nonzero;stroke:none"
           d="m 771.887,363.859 3.449,3.672 13.281,-12.429 -10.902,-11.614 c -3.567,0.282 -6.813,1.032 -9.742,2.25 -2.934,1.211 -5.539,2.883 -7.817,5.024 -3.078,2.886 -5.254,6.168 -6.527,9.847 -1.281,3.68 -1.387,7.36 -0.332,11.063 1.058,3.687 3.031,7.078 5.918,10.148 2.859,3.051 6.168,5.301 9.922,6.739 3.754,1.453 7.429,1.691 11.023,0.722 3.594,-0.961 6.953,-2.91 10.07,-5.832 2.266,-2.129 3.969,-4.418 5.114,-6.871 1.136,-2.449 1.613,-4.816 1.426,-7.098 -0.192,-2.289 -1.008,-4.742 -2.446,-7.359 l -4.699,2.488 c 1.027,2.039 1.621,3.84 1.777,5.403 0.16,1.566 -0.152,3.226 -0.933,5 -0.781,1.758 -1.961,3.386 -3.543,4.867 -1.899,1.781 -3.805,3.031 -5.727,3.75 -1.922,0.723 -3.75,1 -5.476,0.859 -1.735,-0.136 -3.36,-0.558 -4.883,-1.238 -2.617,-1.191 -4.985,-2.922 -7.113,-5.18 -2.618,-2.789 -4.332,-5.582 -5.133,-8.359 -0.805,-2.781 -0.719,-5.492 0.261,-8.133 0.985,-2.629 2.508,-4.918 4.575,-6.859 1.797,-1.68 3.871,-2.981 6.226,-3.891 2.356,-0.918 4.344,-1.398 5.965,-1.437 l 5.473,5.828 -9.207,8.64" /></g></g></g></svg>